# xmcd
#
# Track frame offsets:
# 150
# 19255
# 37057
# 54202
# 69697
# 86722
# 103060
# 122927
# 140915
# 155972
#
# Disc length: 2315 seconds
#
# Revision: 1
# Processed by: cddbd v1.5PL3 Copyright (c) Steve Scherf et al.
# Submitted via: Easy CD Ripper v2.13
#
DISCID=9809090a
DTITLE=Osmond 2ndG - 2ndG
DYEAR=1992
DGENRE=R&B
TTITLE0=Boys Will Be Boys - Osmond 2ndG
TTITLE1=Wear My Ring - Osmond 2ndG
TTITLE2=Only You - Osmond 2ndG
TTITLE3=Can't Get Through - Osmond 2ndG
TTITLE4=Run For Your Love - Osmond 2ndG
TTITLE5=Second Generation - Osmond 2ndG
TTITLE6=Lovesick - Osmond 2ndG
TTITLE7=Broken Heart - Osmond 2ndG
TTITLE8=Indiscreet - Osmond 2ndG
TTITLE9=Show Me The Way - Osmond 2ndG
EXTD=
EXTT0=
EXTT1=
EXTT2=
EXTT3=
EXTT4=
EXTT5=
EXTT6=
EXTT7=
EXTT8=
EXTT9=
PLAYORDER=
